<svg xmlns="http://www.w3.org/2000/svg" viewBox="0 0 512 512">
  <defs>
    <linearGradient id="grad" x1="0%" y1="0%" x2="100%" y2="100%">
      <stop offset="0%" style="stop-color:#06C755"/>
      <stop offset="100%" style="stop-color:#00a040"/>
    </linearGradient>
  </defs>
  <rect width="512" height="512" rx="100" fill="url(#grad)"/>
  <path fill="#fff" d="M256 100c-86 0-156 58-156 130 0 40 20 76 52 100l-13 48 56-29c19 6 40 9 61 9 86 0 156-58 156-130S342 100 256 100zm-70 155c-11 0-20-9-20-20s9-20 20-20 20 9 20 20-9 20-20 20zm70 0c-11 0-20-9-20-20s9-20 20-20 20 9 20 20-9 20-20 20zm70 0c-11 0-20-9-20-20s9-20 20-20 20 9 20 20-9 20-20 20z"/>
</svg>
